Tue Oct 15 13:46:12 COT 2013
Parameter 1: /var/www/pyl5/ImageProcessing/Execution/vocabulary.xml
Parameter 2: /var/www/pyl5/www/output/images/d494682b2452563c3b0775415207074a/script.xml
Parameter 3: /var/www/pyl5/www/output/images/d494682b2452563c3b0775415207074a/score.xml
Parameter 4: /var/www/pyl5/ImageProcessing
Parameter 5: /var/www/pyl5/www/output/images/d494682b2452563c3b0775415207074a/SoundFilm.log
Parameter 6: 
Parameter 7: 

ffmpeg version N-42091-gf7cba73 Copyright (c) 2000-2012 the FFmpeg developers
  built on Jul  1 2012 05:10:32 with gcc 4.6.3
  configuration: --prefix=/root/ffmpeg-static/32bit --arch=x86_32 --extra-cflags='-m32 -I/root/ffmpeg-static/32bit/include -static' --extra-ldflags='-m32 -L/root/ffmpeg-static/32bit/lib -static' --extra-libs='-lxml2 -lexpat -lfreetype' --enable-static --disable-shared --disable-ffserver --disable-doc --enable-bzlib --enable-zlib --enable-postproc --enable-runtime-cpudetect --enable-libx264 --enable-gpl --enable-libtheora --enable-libvorbis --enable-libmp3lame --enable-gray --enable-libass --enable-libfreetype --enable-libopenjpeg --enable-libspeex --enable-libvo-aacenc --enable-libvo-amrwbenc --enable-version3 --enable-libvpx
  libavutil      51. 63.100 / 51. 63.100
  libavcodec     54. 31.100 / 54. 31.100
  libavformat    54. 14.100 / 54. 14.100
  libavdevice    54.  0.100 / 54.  0.100
  libavfilter     3.  0.100 /  3.  0.100
  libswscale      2.  1.100 /  2.  1.100
  libswresample   0. 15.100 /  0. 15.100
  libpostproc    52.  0.100 / 52.  0.100
Guessed Channel Layout for  Input Stream #0.0 : stereo
Input #0, wav, from '/var/www/pyl5/www/output/images/d494682b2452563c3b0775415207074a/tmpgarage.wav':
  Duration: 00:00:03.91, bitrate: 1411 kb/s
    Stream #0:0: Audio: pcm_s16le ([1][0][0][0] / 0x0001), 44100 Hz, stereo, s16, 1411 kb/s
[graph 0 input from stream 0:0 @ 0xa95ab60] tb:1/44100 samplefmt:s16 samplerate:44100 chlayout:0x3
Output #0, mp3, to '/var/www/pyl5/www/output/images/d494682b2452563c3b0775415207074a/walk001.wav.mp3':
  Metadata:
    TSSE            : Lavf54.14.100
    Stream #0:0: Audio: mp3, 44100 Hz, stereo, s16, 128 kb/s
Stream mapping:
  Stream #0:0 -> #0:0 (pcm_s16le -> libmp3lame)
Press [q] to stop, [?] for help
size=       9kB time=00:00:00.52 bitrate= 141.0kbits/s    size=      27kB time=00:00:01.64 bitrate= 132.1kbits/s    size=      44kB time=00:00:02.74 bitrate= 130.5kbits/s    size=      62kB time=00:00:03.91 bitrate= 129.7kbits/s    
video:0kB audio:62kB subtitle:0 global headers:0kB muxing overhead 0.716198%
ffmpeg version N-42091-gf7cba73 Copyright (c) 2000-2012 the FFmpeg developers
  built on Jul  1 2012 05:10:32 with gcc 4.6.3
  configuration: --prefix=/root/ffmpeg-static/32bit --arch=x86_32 --extra-cflags='-m32 -I/root/ffmpeg-static/32bit/include -static' --extra-ldflags='-m32 -L/root/ffmpeg-static/32bit/lib -static' --extra-libs='-lxml2 -lexpat -lfreetype' --enable-static --disable-shared --disable-ffserver --disable-doc --enable-bzlib --enable-zlib --enable-postproc --enable-runtime-cpudetect --enable-libx264 --enable-gpl --enable-libtheora --enable-libvorbis --enable-libmp3lame --enable-gray --enable-libass --enable-libfreetype --enable-libopenjpeg --enable-libspeex --enable-libvo-aacenc --enable-libvo-amrwbenc --enable-version3 --enable-libvpx
  libavutil      51. 63.100 / 51. 63.100
  libavcodec     54. 31.100 / 54. 31.100
  libavformat    54. 14.100 / 54. 14.100
  libavdevice    54.  0.100 / 54.  0.100
  libavfilter     3.  0.100 /  3.  0.100
  libswscale      2.  1.100 /  2.  1.100
  libswresample   0. 15.100 /  0. 15.100
  libpostproc    52.  0.100 / 52.  0.100
Guessed Channel Layout for  Input Stream #0.0 : stereo
Input #0, wav, from '/var/www/pyl5/www/output/images/d494682b2452563c3b0775415207074a/tmpgarage.wav':
  Duration: 00:00:03.91, bitrate: 1411 kb/s
    Stream #0:0: Audio: pcm_s16le ([1][0][0][0] / 0x0001), 44100 Hz, stereo, s16, 1411 kb/s
[graph 0 input from stream 0:0 @ 0x9dd3b60] tb:1/44100 samplefmt:s16 samplerate:44100 chlayout:0x3
Output #0, mp3, to '/var/www/pyl5/www/output/images/d494682b2452563c3b0775415207074a/walk001.wav.mp3':
  Metadata:
    TSSE            : Lavf54.14.100
    Stream #0:0: Audio: mp3, 44100 Hz, stereo, s16, 128 kb/s
Stream mapping:
  Stream #0:0 -> #0:0 (pcm_s16le -> libmp3lame)
Press [q] to stop, [?] for help
size=      11kB time=00:00:00.62 bitrate= 138.9kbits/s    size=      18kB time=00:00:01.09 bitrate= 134.2kbits/s    size=      25kB time=00:00:01.56 bitrate= 132.3kbits/s    size=      34kB time=00:00:02.11 bitrate= 131.2kbits/s    size=      38kB time=00:00:02.37 bitrate= 130.9kbits/s    size=      46kB time=00:00:02.90 bitrate= 130.4kbits/s    size=      62kB time=00:00:03.91 bitrate= 129.7kbits/s    
video:0kB audio:62kB subtitle:0 global headers:0kB muxing overhead 0.716198%
ffmpeg version N-42091-gf7cba73 Copyright (c) 2000-2012 the FFmpeg developers
  built on Jul  1 2012 05:10:32 with gcc 4.6.3
  configuration: --prefix=/root/ffmpeg-static/32bit --arch=x86_32 --extra-cflags='-m32 -I/root/ffmpeg-static/32bit/include -static' --extra-ldflags='-m32 -L/root/ffmpeg-static/32bit/lib -static' --extra-libs='-lxml2 -lexpat -lfreetype' --enable-static --disable-shared --disable-ffserver --disable-doc --enable-bzlib --enable-zlib --enable-postproc --enable-runtime-cpudetect --enable-libx264 --enable-gpl --enable-libtheora --enable-libvorbis --enable-libmp3lame --enable-gray --enable-libass --enable-libfreetype --enable-libopenjpeg --enable-libspeex --enable-libvo-aacenc --enable-libvo-amrwbenc --enable-version3 --enable-libvpx
  libavutil      51. 63.100 / 51. 63.100
  libavcodec     54. 31.100 / 54. 31.100
  libavformat    54. 14.100 / 54. 14.100
  libavdevice    54.  0.100 / 54.  0.100
  libavfilter     3.  0.100 /  3.  0.100
  libswscale      2.  1.100 /  2.  1.100
  libswresample   0. 15.100 /  0. 15.100
  libpostproc    52.  0.100 / 52.  0.100
Guessed Channel Layout for  Input Stream #0.0 : stereo
Input #0, wav, from '/var/www/pyl5/www/output/images/d494682b2452563c3b0775415207074a/tmpgarage.wav':
  Duration: 00:00:03.91, bitrate: 1411 kb/s
    Stream #0:0: Audio: pcm_s16le ([1][0][0][0] / 0x0001), 44100 Hz, stereo, s16, 1411 kb/s
[graph 0 input from stream 0:0 @ 0xb57ab60] tb:1/44100 samplefmt:s16 samplerate:44100 chlayout:0x3
Output #0, mp3, to '/var/www/pyl5/www/output/images/d494682b2452563c3b0775415207074a/walk001.wav.mp3':
  Metadata:
    TSSE            : Lavf54.14.100
    Stream #0:0: Audio: mp3, 44100 Hz, stereo, s16, 128 kb/s
Stream mapping:
  Stream #0:0 -> #0:0 (pcm_s16le -> libmp3lame)
Press [q] to stop, [?] for help
size=       8kB time=00:00:00.47 bitrate= 142.5kbits/s    size=      18kB time=00:00:01.07 bitrate= 134.4kbits/s    size=      34kB time=00:00:02.09 bitrate= 131.3kbits/s    size=      42kB time=00:00:02.61 bitrate= 130.6kbits/s    size=      49kB time=00:00:03.08 bitrate= 130.2kbits/s    size=      56kB time=00:00:03.52 bitrate= 129.9kbits/s    size=      62kB time=00:00:03.91 bitrate= 129.7kbits/s    
video:0kB audio:62kB subtitle:0 global headers:0kB muxing overhead 0.716198%
Hello, SBI!
temporal = /var/www/pyl5/www/output/images/d494682b2452563c3b0775415207074a/
el script es valido
el vocabulario es valido
listo para los objetos
el objeto que da es Rabbit
el objeto que da es Rabbit
listo para los actores
el actor que da es Chinchilla
el actor que da es Rabbit
el objeto que da es Rabbit
es fondo o voz
es el por defecto
el sonido por defecto del actor es RabbitDefault
hola
you can do it
you can do it
you can do it
temporal string = /var/www/pyl5/www/output/images/d494682b2452563c3b0775415207074a/
copiando /var/www/pyl5/ImageProcessing/SoundFilm/walk001.wav en /var/www/pyl5/www/output/images/d494682b2452563c3b0775415207074a/tmp_1.wav
copiando /var/www/pyl5/ImageProcessing/SoundFilm/walk001.wav en /var/www/pyl5/www/output/images/d494682b2452563c3b0775415207074a/tmp_2.wav
copiando /var/www/pyl5/ImageProcessing/SoundFilm/walk001.wav en /var/www/pyl5/www/output/images/d494682b2452563c3b0775415207074a/tmp_3.wav
copiando /var/www/pyl5/ImageProcessing/SoundFilm/walk001.wav en /var/www/pyl5/www/output/images/d494682b2452563c3b0775415207074a/tmp_4.wav
copiando /var/www/pyl5/ImageProcessing/SoundFilm/walk001.wav en /var/www/pyl5/www/output/images/d494682b2452563c3b0775415207074a/tmp_5.wav
tu
el actor es ::Rabbit::
la animacion del actor es ::-default-::
la de la acciones ::WALK::
el actor es ::Rabbit::
la animacion del actor es ::-default-::
la de la acciones ::JUMP::
el actor que da es Butterfly
el actor que da es Butterfly
el actor que da es Butterfly
el actor que da es Butterfly
el actor que da es Butterfly
el actor que da es Rabbit
el objeto que da es Rabbit
es fondo o voz
es el por defecto
el sonido por defecto del actor es RabbitDefault
hola
you can do it
you can do it
you can do it
temporal string = /var/www/pyl5/www/output/images/d494682b2452563c3b0775415207074a/
copiando /var/www/pyl5/ImageProcessing/SoundFilm/walk001.wav en /var/www/pyl5/www/output/images/d494682b2452563c3b0775415207074a/tmp_1.wav
copiando /var/www/pyl5/ImageProcessing/SoundFilm/walk001.wav en /var/www/pyl5/www/output/images/d494682b2452563c3b0775415207074a/tmp_2.wav
copiando /var/www/pyl5/ImageProcessing/SoundFilm/walk001.wav en /var/www/pyl5/www/output/images/d494682b2452563c3b0775415207074a/tmp_3.wav
copiando /var/www/pyl5/ImageProcessing/SoundFilm/walk001.wav en /var/www/pyl5/www/output/images/d494682b2452563c3b0775415207074a/tmp_4.wav
copiando /var/www/pyl5/ImageProcessing/SoundFilm/walk001.wav en /var/www/pyl5/www/output/images/d494682b2452563c3b0775415207074a/tmp_5.wav
tu
el actor es ::Rabbit::
la animacion del actor es ::-default-::
la de la acciones ::WALK::
el actor es ::Rabbit::
la animacion del actor es ::-default-::
la de la acciones ::JUMP::
el actor que da es FlyingSquirrel
el actor que da es Butterfly
el actor que da es Rabbit
el objeto que da es Rabbit
es fondo o voz
es el por defecto
el sonido por defecto del actor es RabbitDefault
hola
you can do it
you can do it
you can do it
temporal string = /var/www/pyl5/www/output/images/d494682b2452563c3b0775415207074a/
copiando /var/www/pyl5/ImageProcessing/SoundFilm/walk001.wav en /var/www/pyl5/www/output/images/d494682b2452563c3b0775415207074a/tmp_1.wav
copiando /var/www/pyl5/ImageProcessing/SoundFilm/walk001.wav en /var/www/pyl5/www/output/images/d494682b2452563c3b0775415207074a/tmp_2.wav
copiando /var/www/pyl5/ImageProcessing/SoundFilm/walk001.wav en /var/www/pyl5/www/output/images/d494682b2452563c3b0775415207074a/tmp_3.wav
copiando /var/www/pyl5/ImageProcessing/SoundFilm/walk001.wav en /var/www/pyl5/www/output/images/d494682b2452563c3b0775415207074a/tmp_4.wav
copiando /var/www/pyl5/ImageProcessing/SoundFilm/walk001.wav en /var/www/pyl5/www/output/images/d494682b2452563c3b0775415207074a/tmp_5.wav
tu
el actor es ::Rabbit::
la animacion del actor es ::-default-::
la de la acciones ::WALK::
el actor es ::Rabbit::
la animacion del actor es ::-default-::
la de la acciones ::JUMP::
el actor que da es Apple
el actor que da es Bird
el objeto que da es Squirrel
el objeto que da es Squirrel
listo para los actores
el actor que da es Chinchilla
el actor que da es Rabbit
el actffmpeg version N-42091-gf7cba73 Copyright (c) 2000-2012 the FFmpeg developers
  built on Jul  1 2012 05:10:32 with gcc 4.6.3
  configuration: --prefix=/root/ffmpeg-static/32bit --arch=x86_32 --extra-cflags='-m32 -I/root/ffmpeg-static/32bit/include -static' --extra-ldflags='-m32 -L/root/ffmpeg-static/32bit/lib -static' --extra-libs='-lxml2 -lexpat -lfreetype' --enable-static --disable-shared --disable-ffserver --disable-doc --enable-bzlib --enable-zlib --enable-postproc --enable-runtime-cpudetect --enable-libx264 --enable-gpl --enable-libtheora --enable-libvorbis --enable-libmp3lame --enable-gray --enable-libass --enable-libfreetype --enable-libopenjpeg --enable-libspeex --enable-libvo-aacenc --enable-libvo-amrwbenc --enable-version3 --enable-libvpx
  libavutil      51. 63.100 / 51. 63.100
  libavcodec     54. 31.100 / 54. 31.100
  libavformat    54. 14.100 / 54. 14.100
  libavdevice    54.  0.100 / 54.  0.100
  libavfilter     3.  0.100 /  3.  0.100
  libswscale      2.  1.100 /  2.  1.100
  libswresample   0. 15.100 /  0. 15.100
  libpostproc    52.  0.100 / 52.  0.100
[wav @ 0x9c50660] max_analyze_duration 5000000 reached at 5015510
Guessed Channel Layout for  Input Stream #0.0 : mono
Input #0, wav, from '/var/www/pyl5/www/output/images/d494682b2452563c3b0775415207074a/tmpgarage.wav':
  Duration: 00:00:07.35, bitrate: 705 kb/s
    Stream #0:0: Audio: pcm_s16le ([1][0][0][0] / 0x0001), 44100 Hz, mono, s16, 705 kb/s
[graph 0 input from stream 0:0 @ 0x9c56900] tb:1/44100 samplefmt:s16 samplerate:44100 chlayout:0x4
Output #0, mp3, to '/var/www/pyl5/www/output/images/d494682b2452563c3b0775415207074a/chinchilla.wav.mp3':
  Metadata:
    TSSE            : Lavf54.14.100
    Stream #0:0: Audio: mp3, 44100 Hz, mono, s16, 128 kb/s
Stream mapping:
  Stream #0:0 -> #0:0 (pcm_s16le -> libmp3lame)
Press [q] to stop, [?] for help
size=      21kB time=00:00:01.28 bitrate= 133.3kbits/s    size=      38kB time=00:00:02.40 bitrate= 130.8kbits/s    size=      54kB time=00:00:03.37 bitrate= 130.0kbits/s    size=      80kB time=00:00:05.04 bitrate= 129.4kbits/s    size=     116kB time=00:00:07.36 bitrate= 128.9kbits/s    
video:0kB audio:116kB subtitle:0 global headers:0kB muxing overhead 0.382138%
ffmpeg version N-42091-gf7cba73 Copyright (c) 2000-2012 the FFmpeg developers
  built on Jul  1 2012 05:10:32 with gcc 4.6.3
  configuration: --prefix=/root/ffmpeg-static/32bit --arch=x86_32 --extra-cflags='-m32 -I/root/ffmpeg-static/32bit/include -static' --extra-ldflags='-m32 -L/root/ffmpeg-static/32bit/lib -static' --extra-libs='-lxml2 -lexpat -lfreetype' --enable-static --disable-shared --disable-ffserver --disable-doc --enable-bzlib --enable-zlib --enable-postproc --enable-runtime-cpudetect --enable-libx264 --enable-gpl --enable-libtheora --enable-libvorbis --enable-libmp3lame --enable-gray --enable-libass --enable-libfreetype --enable-libopenjpeg --enable-libspeex --enable-libvo-aacenc --enable-libvo-amrwbenc --enable-version3 --enable-libvpx
  libavutil      51. 63.100 / 51. 63.100
  libavcodec     54. 31.100 / 54. 31.100
  libavformat    54. 14.100 / 54. 14.100
  libavdevice    54.  0.100 / 54.  0.100
  libavfilter     3.  0.100 /  3.  0.100
  libswscale      2.  1.100 /  2.  1.100
  libswresample   0. 15.100 /  0. 15.100
  libpostproc    52.  0.100 / 52.  0.100
[wav @ 0x9a59660] max_analyze_duration 5000000 reached at 5015510
Guessed Channel Layout for  Input Stream #0.0 : mono
Input #0, wav, from '/var/www/pyl5/www/output/images/d494682b2452563c3b0775415207074a/tmpgarage.wav':
  Duration: 00:00:13.07, bitrate: 705 kb/s
    Stream #0:0: Audio: pcm_s16le ([1][0][0][0] / 0x0001), 44100 Hz, mono, s16, 705 kb/s
[graph 0 input from stream 0:0 @ 0x9a5f900] tb:1/44100 samplefmt:s16 samplerate:44100 chlayout:0x4
Output #0, mp3, to '/var/www/pyl5/www/output/images/d494682b2452563c3b0775415207074a/bird001.wav.mp3':
  Metadata:
    TSSE            : Lavf54.14.100
    Stream #0:0: Audio: mp3, 44100 Hz, mono, s16, 128 kb/s
Stream mapping:
  Stream #0:0 -> #0:0 (pcm_s16le -> libmp3lame)
Press [q] to stop, [?] for help
size=      32kB time=00:00:01.98 bitrate= 131.4kbits/s    size=      67kB time=00:00:04.25 bitrate= 129.6kbits/s    size=     100kB time=00:00:06.37 bitrate= 129.1kbits/s    size=     133kB time=00:00:08.46 bitrate= 128.8kbits/s    size=     155kB time=00:00:09.87 bitrate= 128.7kbits/s    size=     174kB time=00:00:11.07 bitrate= 128.6kbits/s    size=     195kB time=00:00:12.43 bitrate= 128.5kbits/s    size=     205kB time=00:00:13.08 bitrate= 128.5kbits/s    
video:0kB audio:205kB subtitle:0 global headers:0kB muxing overhead 0.215428%
or que da es Butterfly
el actor que da es Butterfly
el actor que da es Butterfly
el actor que da es Butterfly
el actor que da es Butterfly
el actor que da es Rabbit
el actor que da es FlyingSquirrel
el actor que da es Butterfly
el actor que da es Rabbit
el actor que da es Apple
el actor que da es Bird
el objeto que da es Chinchilla
el objeto que da es Chinchilla
listo para los actores
el actor que da es Chinchilla
el objeto que da es Chinchilla
es fondo o voz
es el por defecto
el sonido por defecto del actor es ChinchillaDefault
hola
you can do it
you can do it
you can do it
temporal string = /var/www/pyl5/www/output/images/d494682b2452563c3b0775415207074a/
copiando /var/www/pyl5/ImageProcessing/SoundFilm/chinchilla.wav en /var/www/pyl5/www/output/images/d494682b2452563c3b0775415207074a/tmp_1.wav
copiando /var/www/pyl5/ImageProcessing/SoundFilm/chinchilla.wav en /var/www/pyl5/www/output/images/d494682b2452563c3b0775415207074a/tmp_2.wav
copiando /var/www/pyl5/ImageProcessing/SoundFilm/chinchilla.wav en /var/www/pyl5/www/output/images/d494682b2452563c3b0775415207074a/tmp_3.wav
copiando /var/www/pyl5/ImageProcessing/SoundFilm/chinchilla.wav en /var/www/pyl5/www/output/images/d494682b2452563c3b0775415207074a/tmp_4.wav
copiando /var/www/pyl5/ImageProcessing/SoundFilm/chinchilla.wav en /var/www/pyl5/www/output/images/d494682b2452563c3b0775415207074a/tmp_5.wav
tu
el actor es ::Chinchilla::
la animacion del actor es ::-default-::
la de la acciones ::EAT::
el actor es ::Chinchilla::
la animacion del actor es ::-default-::
la de la acciones ::RUN::
el actor que da es Rabbit
el actor que da es Butterfly
el actor que da es Butterfly
el actor que da es Butterfly
el actor que da es Butterfly
el actor que da es Butterfly
el actor que da es Rabbit
el actor que da es FlyingSquirrel
el actor que da es Butterfly
el actor que da es Rabbit
el actor que da es Apple
el actor que da es Bird
el objeto que da es Butterfly
el objeto que da es Butterfly
listo para los actores
el actor que da es Chinchilla
el actor que da es Rabbit
el actor que da es Butterfly
el objeto que da es Butterfly
el actor que da es Butterfly
el objeto que da es Butterfly
el actor que da es Butterfly
el objeto que da es Butterfly
el actor que da es Butterfly
el objeto que da es Butterfly
el actor que da es Butterfly
el objeto que da es Butterfly
el actor que da es Rabbit
el actor que da es FlyingSquirrel
el actor que da es Butterfly
el objeto que da es Butterfly
el actor que da es Rabbit
el actor que da es Apple
el actor que da es Bird
el objeto que da es Bird
el objeto que da es Bird
listo para los actores
el actor que da es Chinchilla
el actor que da es Rabbit
el actor que da es Butterfly
el actor que da es Butterfly
el actor que da es Butterfly
el actor que da es Butterfly
el actor que da es Butterfly
el actor que da es Rabbit
el actor que da es FlyingSquirrel
el actor que da es Butterfly
el actor que da es Rabbit
el actor que da es Apple
el actor que da es Bird
el objeto que da es Bird
es fondo o voz
es el por defecto
el sonido por defecto del actor es BirdDefault
hola
you can do it
you can do it
you can do it
temporal string = /var/www/pyl5/www/output/images/d494682b2452563c3b0775415207074a/
copiando /var/www/pyl5/ImageProcessing/SoundFilm/bird001.wav en /var/www/pyl5/www/output/images/d494682b2452563c3b0775415207074a/tmp_1.wav
copiando /var/www/pyl5/ImageProcessing/SoundFilm/bird001.wav en /var/www/pyl5/www/output/images/d494682b2452563c3b0775415207074a/tmp_2.wav
copiando /var/www/pyl5/ImageProcessing/SoundFilm/bird001.wav en /var/www/pyl5/www/output/images/d494682b2452563c3b0775415207074a/tmp_3.wav
copiando /var/www/pyl5/ImageProcessing/SoundFilm/bird001.wav en /var/www/pyl5/www/output/images/d494682b2452563c3b0775415207074a/tmp_4.wav
copiando /var/www/pyl5/ImageProcessing/SoundFilm/bird001.wav en /var/www/pyl5/www/output/images/d494682b2452563c3b0775415207074a/tmp_5.wav
tu
el actor es ::Bird::
la animacion del actor es ::-default-::
la de la acciones ::FLAP::
el objeto que da es FlyingSquirrel
el objeto que da es FlyingSquirrel
listo para los actores
el actor que daffmpeg version N-42091-gf7cba73 Copyright (c) 2000-2012 the FFmpeg developers
  built on Jul  1 2012 05:10:32 with gcc 4.6.3
  configuration: --prefix=/root/ffmpeg-static/32bit --arch=x86_32 --extra-cflags='-m32 -I/root/ffmpeg-static/32bit/include -static' --extra-ldflags='-m32 -L/root/ffmpeg-static/32bit/lib -static' --extra-libs='-lxml2 -lexpat -lfreetype' --enable-static --disable-shared --disable-ffserver --disable-doc --enable-bzlib --enable-zlib --enable-postproc --enable-runtime-cpudetect --enable-libx264 --enable-gpl --enable-libtheora --enable-libvorbis --enable-libmp3lame --enable-gray --enable-libass --enable-libfreetype --enable-libopenjpeg --enable-libspeex --enable-libvo-aacenc --enable-libvo-amrwbenc --enable-version3 --enable-libvpx
  libavutil      51. 63.100 / 51. 63.100
  libavcodec     54. 31.100 / 54. 31.100
  libavformat    54. 14.100 / 54. 14.100
  libavdevice    54.  0.100 / 54.  0.100
  libavfilter     3.  0.100 /  3.  0.100
  libswscale      2.  1.100 /  2.  1.100
  libswresample   0. 15.100 /  0. 15.100
  libpostproc    52.  0.100 / 52.  0.100
[wav @ 0x9a7a660] max_analyze_duration 5000000 reached at 5015510
Guessed Channel Layout for  Input Stream #0.0 : stereo
Input #0, wav, from '/var/www/pyl5/www/output/images/d494682b2452563c3b0775415207074a/tmpgarage.wav':
  Duration: 00:00:05.99, bitrate: 1411 kb/s
    Stream #0:0: Audio: pcm_s16le ([1][0][0][0] / 0x0001), 44100 Hz, stereo, s16, 1411 kb/s
[graph 0 input from stream 0:0 @ 0x9ae2420] tb:1/44100 samplefmt:s16 samplerate:44100 chlayout:0x3
Output #0, mp3, to '/var/www/pyl5/www/output/images/d494682b2452563c3b0775415207074a/fsquirrel.wav.mp3':
  Metadata:
    TSSE            : Lavf54.14.100
    Stream #0:0: Audio: mp3, 44100 Hz, stereo, s16, 128 kb/s
Stream mapping:
  Stream #0:0 -> #0:0 (pcm_s16le -> libmp3lame)
Press [q] to stop, [?] for help
size=      15kB time=00:00:00.91 bitrate= 135.4kbits/s    size=      25kB time=00:00:01.54 bitrate= 132.4kbits/s    size=      31kB time=00:00:01.93 bitrate= 131.5kbits/s    size=      38kB time=00:00:02.40 bitrate= 130.8kbits/s    size=      47kB time=00:00:02.92 bitrate= 130.3kbits/s    size=      54kB time=00:00:03.42 bitrate= 130.0kbits/s    size=      68kB time=00:00:04.28 bitrate= 129.6kbits/s    size=      82kB time=00:00:05.19 bitrate= 129.3kbits/s    size=      89kB time=00:00:05.64 bitrate= 129.2kbits/s    size=      93kB time=00:00:05.87 bitrate= 129.2kbits/s    size=      95kB time=00:00:06.00 bitrate= 129.1kbits/s    
video:0kB audio:94kB subtitle:0 global headers:0kB muxing overhead 0.468161%
 es Chinchilla
el actor que da es Rabbit
el actor que da es Butterfly
el actor que da es Butterfly
el actor que da es Butterfly
el actor que da es Butterfly
el actor que da es Butterfly
el actor que da es Rabbit
el actor que da es FlyingSquirrel
el objeto que da es FlyingSquirrel
es fondo o voz
es el por defecto
el sonido por defecto del actor es FlyingSquirrelDefault
hola
you can do it
you can do it
you can do it
temporal string = /var/www/pyl5/www/output/images/d494682b2452563c3b0775415207074a/
copiando /var/www/pyl5/ImageProcessing/SoundFilm/fsquirrel.wav en /var/www/pyl5/www/output/images/d494682b2452563c3b0775415207074a/tmp_1.wav
copiando /var/www/pyl5/ImageProcessing/SoundFilm/fsquirrel.wav en /var/www/pyl5/www/output/images/d494682b2452563c3b0775415207074a/tmp_2.wav
copiando /var/www/pyl5/ImageProcessing/SoundFilm/fsquirrel.wav en /var/www/pyl5/www/output/images/d494682b2452563c3b0775415207074a/tmp_3.wav
copiando /var/www/pyl5/ImageProcessing/SoundFilm/fsquirrel.wav en /var/www/pyl5/www/output/images/d494682b2452563c3b0775415207074a/tmp_4.wav
copiando /var/www/pyl5/ImageProcessing/SoundFilm/fsquirrel.wav en /var/www/pyl5/www/output/images/d494682b2452563c3b0775415207074a/tmp_5.wav
tu
el actor es ::FlyingSquirrel::
la animacion del actor es ::-default-::
la de la acciones ::FLAP::
el actor es ::FlyingSquirrel::
la animacion del actor es ::-default-::
la de la acciones ::RUN::
el actor que da es Butterfly
el actor que da es Rabbit
el actor que da es Apple
el actor que da es Bird
el objeto que da es Apple
el objeto que da es Apple
listo para los actores
el actor que da es Chinchilla
el actor que da es Rabbit
el actor que da es Butterfly
el actor que da es Butterfly
el actor que da es Butterfly
el actor que da es Butterfly
el actor que da es Butterfly
el actor que da es Rabbit
el actor que da es FlyingSquirrel
el actor que da es Butterfly
el actor que da es Rabbit
el actor que da es Apple
el objeto que da es Apple
el actor que da es Bird
el objeto que da es SBCamera
el objeto que da es SBCamera
listo para los actores
el actor que da es Chinchilla
el actor que da es Rabbit
el actor que da es Butterfly
el actor que da es Butterfly
el actor que da es Butterfly
el actor que da es Butterfly
el actor que da es Butterfly
el actor que da es Rabbit
el actor que da es FlyingSquirrel
el actor que da es Butterfly
el actor que da es Rabbit
el actor que da es Apple
el actor que da es Bird
el objeto que da es SBRectangle
el objeto que da es SBRectangle
listo para los actores
el actor que da es Chinchilla
el actor que da es Rabbit
el actor que da es Butterfly
el actor que da es Butterfly
el actor que da es Butterfly
el actor que da es Butterfly
el actor que da es Butterfly
el actor que da es Rabbit
el actor que da es FlyingSquirrel
el actor que da es Butterfly
el actor que da es Rabbit
el actor que da es Apple
el actor que da es Bird
sayonara, SBI!

Tue Oct 15 13:46:39 COT 2013
